<?xml version="1.0" encoding="UTF-8" standalone="no"?>
<!-- Generator: Adobe Illustrator 27.2.0, SVG Export Plug-In . SVG Version: 6.00 Build 0)  -->

<svg
   version="1.1"
   id="uuid-18bcd37a-ea19-4605-a4e0-ac867bed8839"
   x="0px"
   y="0px"
   viewBox="0 0 4252.9364 959.6043"
   width="1665.1709"
   height="397.46924"
   xml:space="preserve"
   xmlns:xlink="http://www.w3.org/1999/xlink"
   xmlns="http://www.w3.org/2000/svg"
   xmlns:svg="http://www.w3.org/2000/svg"><defs
   id="defs32" />
<style
   type="text/css"
   id="style1">
	.st0{fill:#ED1B2F;}
	.st1{clip-path:url(#SVGID_00000061459402516280597940000001485578399162050999_);}
	.st2{fill:url(#SVGID_00000183207225501636321850000005355232608392724370_);}
	.st3{clip-path:url(#SVGID_00000074433355043868940650000002957508963148434866_);}
	.st4{fill:url(#SVGID_00000101803383776484455250000012613700848760581515_);}
	.st5{fill:#FFFFFF;}
</style>

<g
   id="g33"
   transform="matrix(15,0,0,15,0,1.5745523)"><path
     class="st0"
     d="m 223.52909,46.743243 c 1.9,0 4.1,-0.9 4.1,-0.9 l -2.4,-8.3 c -0.9,-3.1 -2.3,-4.7 -4.3,-5.3 v -0.2 c 2.5,-0.9 5.6,-3.7 5.6,-7.1 0,-5.9 -4.5,-8.4 -13.5,-8.4 -3.8,0 -7.3,0.2 -9.6,0.6 v 28.6 h 7 v -11.6 h 2.1 c 3.3,0 4.9,1.4 5.8,4.9 l 1.4,5.2 c 0.7,1.9 2.2,2.5 3.8,2.5 z m -10.1,-16.9 h -2.8 v -8.3 c 0.6,-0.2 1.7,-0.4 3.1,-0.4 3.8,0 5.8,1.6 5.8,4.4 0,2.8 -2.2,4.3 -6.1,4.3 z m 30.7,16.4 c 9.7,0 14.9,-6.3 14.9,-15.3 0,-8.1 -4.9,-14.7 -14.4,-14.7 -9.7,0 -14.9,6.6 -14.9,14.7 0.1,7.7 4.7,15.3 14.4,15.3 z m 0.4,-5.4 c -5.2,0 -7.3,-4.6 -7.3,-10.1 0,-5.4 2,-9.2 7.3,-9.2 5.2,0 7.2,4.3 7.2,9.5 0,5.8 -2.1,9.8 -7.2,9.8 z m -110.1,-7.3 h 9 v -5.4 h -9 v -6 h 10.1 c 1.9,0 2.7,-0.7 2.7,-3.5 0,-0.6 0,-1.4 -0.1,-2 h -19.6 v 29 h 20.2 c 0.1,-0.5 0.1,-1.3 0.1,-2 0,-2.7 -0.8,-3.4 -2.7,-3.4 h -10.8 z m 17.7,12.2 h 19.7 c 0.1,-0.6 0.1,-1.3 0.1,-2 0,-2.7 -0.8,-3.4 -2.7,-3.4 h -10.1 v -20.8 c 0,-2.5 -1.7,-3.3 -3.7,-3.3 -1.5,0 -2.3,0.3 -3.3,0.8 z m 119.6,0.5 c 8.2,0 11.8,-4.2 11.8,-8.8 0,-4.6 -2.7,-6.9 -8.7,-9 -4.2,-1.5 -5.8,-1.8 -5.8,-4 0,-1.5 1.3,-2.8 5.4,-2.8 3.2,0 5.5,1.1 6.9,1.9 0,0 1.2,-2 1.2,-3.6 0,-1 -0.5,-2 -2,-2.5 -1.5,-0.5 -3.8,-1.1 -7.5,-1.1 -7.5,0 -11.3,3.4 -11.3,8.1 0,4.8 3.1,7 8.6,8.6 4.7,1.4 5.9,2.7 5.9,4.7 0,1.9 -1.1,3.1 -5.6,3.1 -3.5,0 -6,-1.2 -7.9,-2.3 0,0 -1.3,2.6 -1.3,4 0,1.3 0.7,1.9 2,2.5 1.7,0.7 4.3,1.2 8.3,1.2 z m -159.9,0 c 8.2,0 11.8,-4.2 11.8,-8.8 0,-4.6 -2.7,-6.9 -8.7,-9 -4.2,-1.5 -5.8,-1.8 -5.8,-4 0,-1.5 1.3,-2.8 5.4,-2.8 3.2,0 5.5,1.1 6.9,1.9 0,0 1.2,-2 1.2,-3.6 0,-1 -0.5,-2 -2,-2.5 -1.5,-0.5 -3.8,-1.1 -7.5,-1.1 -7.5,0 -11.3,3.4 -11.3,8.1 0,4.8 3.1,7 8.6,8.6 4.7,1.4 5.9,2.7 5.9,4.7 0,1.9 -1.1,3.1 -5.6,3.1 -3.5,0 -6,-1.2 -7.9,-2.3 0,0 -1.3,2.6 -1.3,4 0,1.3 0.7,1.9 2,2.5 1.6,0.7 4.3,1.2 8.3,1.2 z m 76.2,0 c 3.8,0 7.4,-0.7 9.7,-1.5 v -15.1 h -11 v 4.9 h 4.4 v 5.9 c -0.7,0.3 -1.9,0.5 -3,0.5 -5.9,0 -9.5,-4 -9.5,-9.7 0,-5.5 3.3,-9.6 9.1,-9.6 2.4,0 4.7,0.6 7.2,1.8 0.6,-1.3 1.3,-3.3 1.3,-4.4 0,-0.9 -0.6,-1.7 -1.9,-2.1 -1.5,-0.5 -3.6,-0.7 -5.7,-0.7 -10.9,0 -17.4,5.8 -17.4,15.3 0,4.2 1.7,8.1 4.5,10.6 3.1,2.7 6.9,4.1 12.3,4.1 z"
     id="path1" /><g
     id="uuid-f8878eb6-7708-4dbe-a396-d229dbaf08d4"
     transform="translate(0.02908965,-1.9567568)">
	<g
   id="uuid-68c06839-9173-4135-a245-e81ec1de8156">
		<g
   id="g32">
			<g
   id="g13">
				<defs
   id="defs1"><path
     id="SVGID_1_"
     d="M 27.8,61.4 C 13.5,60.8 -4.5,12.1 9.5,5.2 18.5,0.7 76.2,8 80,18.9 85.2,34.4 42.7,61.4 28.2,61.4 H 27.8 M 5,3.7 C -8.3,14.9 6.9,64.1 25.9,67.3 52.2,71.7 92.4,36.5 84.7,19.3 79.1,6.5 47.4,0 25.5,0 15.9,0 8.1,1.2 5,3.7" /></defs>
				<clipPath
   id="SVGID_00000170996661812397757400000013541597666639903378_">
					<use
   xlink:href="#SVGID_1_"
   style="overflow:visible"
   id="use1" />
				</clipPath>
				<g
   clip-path="url(#SVGID_00000170996661812397757400000013541597666639903378_)"
   id="g12">
					
						<linearGradient
   id="SVGID_00000035516200277725756110000009045355751718296716_"
   gradientUnits="userSpaceOnUse"
   x1="-1289.3177"
   y1="-298.4097"
   x2="-1288.1501"
   y2="-298.4097"
   gradientTransform="matrix(-22.9745,36.4055,36.4055,22.9745,-18689.559,53788.645)">
						<stop
   offset="0"
   style="stop-color:#F7AA9E"
   id="stop1" />
						<stop
   offset="7.140000e-02"
   style="stop-color:#F58B85"
   id="stop2" />
						<stop
   offset="0.1768"
   style="stop-color:#F26366"
   id="stop3" />
						<stop
   offset="0.2806"
   style="stop-color:#EF434E"
   id="stop4" />
						<stop
   offset="0.3811"
   style="stop-color:#ED2D3C"
   id="stop5" />
						<stop
   offset="0.4767"
   style="stop-color:#EC2032"
   id="stop6" />
						<stop
   offset="0.5622"
   style="stop-color:#EC1B2E"
   id="stop7" />
						<stop
   offset="0.6858"
   style="stop-color:#E91B2D"
   id="stop8" />
						<stop
   offset="0.7913"
   style="stop-color:#DE1B2B"
   id="stop9" />
						<stop
   offset="0.89"
   style="stop-color:#CD1A26"
   id="stop10" />
						<stop
   offset="0.9842"
   style="stop-color:#B41A20"
   id="stop11" />
						<stop
   offset="1"
   style="stop-color:#AF1A1F"
   id="stop12" />
					</linearGradient>
					<polygon
   style="fill:url(#SVGID_00000035516200277725756110000009045355751718296716_)"
   points="63.8,117.1 -40.7,51.3 20.5,-45.4 124.7,20.3 "
   id="polygon12" />
				</g>
			</g>
			<g
   id="g24">
				<defs
   id="defs13"><path
     id="SVGID_00000057862402772945229030000005836375009977202821_"
     d="M 8.7,3.7 C -8,12.3 13.6,63.9 30.8,64.7 47.7,65.5 88.1,36.1 81.2,19.8 76.9,9.5 45.6,1.1 24.5,1.1 17.9,1.1 12.3,1.9 8.7,3.7" /></defs>
				<clipPath
   id="SVGID_00000052069948501058290270000004714179894632051624_">
					<use
   xlink:href="#SVGID_00000057862402772945229030000005836375009977202821_"
   style="overflow:visible"
   id="use13" />
				</clipPath>
				<g
   clip-path="url(#SVGID_00000052069948501058290270000004714179894632051624_)"
   id="g23">
					
						<radialGradient
   id="SVGID_00000158712290370011119850000016683931617930778274_"
   cx="-1304.9254"
   cy="-342.46689"
   r="1.17"
   gradientTransform="matrix(-48.9622,8.9026,-7.4595,-41.0255,-66383.836,-2419.3223)"
   gradientUnits="userSpaceOnUse">
						<stop
   offset="0"
   style="stop-color:#F7AA9E"
   id="stop13" />
						<stop
   offset="7.140000e-02"
   style="stop-color:#F58B85"
   id="stop14" />
						<stop
   offset="0.1768"
   style="stop-color:#F26366"
   id="stop15" />
						<stop
   offset="0.2806"
   style="stop-color:#EF434E"
   id="stop16" />
						<stop
   offset="0.3811"
   style="stop-color:#ED2D3C"
   id="stop17" />
						<stop
   offset="0.4767"
   style="stop-color:#EC2032"
   id="stop18" />
						<stop
   offset="0.5622"
   style="stop-color:#EC1B2E"
   id="stop19" />
						<stop
   offset="0.716"
   style="stop-color:#E91C2D"
   id="stop20" />
						<stop
   offset="0.8472"
   style="stop-color:#DE1D2B"
   id="stop21" />
						<stop
   offset="0.9697"
   style="stop-color:#CD2028"
   id="stop22" />
						<stop
   offset="1"
   style="stop-color:#C72127"
   id="stop23" />
					</radialGradient>
					<polygon
   style="fill:url(#SVGID_00000158712290370011119850000016683931617930778274_)"
   points="-19.4,3.1 -5,82.5 99.6,63.5 85.1,-15.8 "
   id="polygon23" />
				</g>
			</g>
			<g
   id="g31">
				<path
   class="st5"
   d="m 80.2,13.7 c -3.5,1.1 -9,2.6 -16.4,4.5 -12.3,3.2 -20.5,2.8 -23.2,2.7 -1.1,0 -1.5,-0.7 -2.1,-1.8 -0.8,-1.2 -1.7,-2.8 -4.3,-3.8 -1.4,-0.5 -2.6,-0.7 -10.3,-0.8 l -6.4,-0.2 c -5,-0.2 -6.4,-0.2 -6.9,0.4 -0.3,0.3 -0.2,0.7 -0.2,0.8 0.2,1.4 2.1,3.1 14.5,3.3 8.7,0.2 9.9,2.1 11.1,4.1 l 0.5,0.9 0.5,0.8 c 0.6,1.1 1.2,2.1 3,2.4 1.8,0.3 9,-1 22,-3.4 l 5.2,-0.9 C 74.4,21.4 80.104632,19.761052 84.004632,17.861052 82.877895,16.424421 81.8,15 80.2,13.7"
   id="path24" />
				<path
   class="st5"
   d="m 80.2,13.6 c -3.2,1 -8.7,2.6 -16.4,4.5 -12.3,3.2 -20.5,2.8 -23.2,2.7 -1.1,0 -1.5,-0.7 -2.1,-1.7 -0.8,-1.3 -1.7,-2.8 -4.4,-3.8 -1.4,-0.5 -2.6,-0.7 -10.4,-0.8 l -6.4,-0.2 c -5.1,-0.2 -6.4,-0.2 -7,0.4 -0.2,0.2 -0.3,0.5 -0.2,0.8 0.2,1.5 2.1,3.2 14.6,3.4 8.7,0.2 9.8,2 11,4 l 0.5,0.9 0.5,0.8 c 0.6,1.1 1.3,2.2 3,2.4 1.8,0.3 9,-1 21.9,-3.4 l 5.2,-0.9 c 7.1,-1.3 13.1,-3 17,-4.9 h 0.1 v -0.1 c -0.8,-1.3 -2.1,-2.8 -3.7,-4.1 z m -16.4,4.7 c 7.7,-2 13.1,-3.5 16.4,-4.5 1.6,1.3 2.8,2.7 3.7,4.1 C 80,19.7 74,21.4 67,22.7 l -5.2,1 C 52.6341,25.237288 44.513654,27.409192 37.062086,22.107029 32.068242,16.023356 18.462814,16.442552 10.5,14.9 c 0.5,-0.6 2,-0.5 6.9,-0.4 l 6.4,0.2 c 7.8,0.1 8.9,0.3 10.3,0.8 2.6,1 3.5,2.5 4.3,3.7 0.7,1.1 1.1,1.8 2.2,1.8 2.6,0.1 10.8,0.4 23.2,-2.7"
   id="path25" />
				<path
   class="st5"
   d="M 85.1,20.4 C 81,23.1 67.2,30.8 43.1,34.8 24.2,38 6.4,35.7 2.4,35.2 c 0.4,1.5 0.9,3.1 1.4,4.6 3.4,1.5 15.7,5.3 26.4,6.5 11.8,1.3 11.8,-2.4 12.1,-3.5 0.3,-1.1 1.4,-2.1 2.6,-2.5 1.3,-0.3 5.9,0.3 21.7,-4.7 10.4,-3.3 16.3,-8.1 19,-11.4 0.1,-1.3 -0.1,-2.6 -0.5,-3.8"
   id="path26" />
				<path
   class="st5"
   d="m 85.1,20.4 c -2.5,1.7 -16.3,10.1 -42,14.4 -11.9,2 -25.3,2.1 -39.9,0.4 L 2.2802787,35.090023 c 0.2777694,1.103854 0.9467354,3.43258 1.4,4.660093 C 7.4802787,41.450116 19.9,45.2 30.2,46.3 41.3,47.5 42,44.4 42.3,43 l 0.1,-0.2 c 0.3,-1.1 1.4,-2.1 2.6,-2.4 0.3,-0.1 0.6,-0.1 1.2,-0.1 2.4,-0.2 7.9,-0.5 20.5,-4.6 11.8,-3.8 17.2,-9.2 19,-11.4 0.1,-1.4 -0.411107,-3.653388 -0.6,-3.9 v 0 c 0.1,-0.1 0,0 0,0 z m -42,14.5 c 25.6,-4.3 39.200473,-12.340852 41.800473,-14.040852 0.3,1.1 0.478956,2.068209 0.557778,2.937742 l 0.04199,0.463205 c -1.8,2.1 -8.077917,7.00142 -19.777917,10.70142 -12.6,4 -17.082415,4.4 -19.382415,4.6 -0.6,0 -1.179574,0.259621 -1.479574,0.259621 C 43.660331,40.121136 42.6,41.7 42.3,42.8 L 42.2,43 c -0.3,1.3 -1,4.4 -12,3.2 C 29.283556,46.102127 3.8406213,43.313545 3,35.3 c 14.8,1.8 28.2,1.6 40.1,-0.4"
   id="path27" />
				<path
   class="st5"
   d="m 9.7,29.4 c 0,0.2 0,0.6 0.5,0.9 0.9,0.6 7.8,2.8 15.5,2.1 7.4,-0.7 9.1,-1.5 9.6,-2.6 0.122828,-0.120102 0.459795,-0.508689 0.2,-1.2 0,-0.2 -0.1,-0.3 -0.1,-0.4 -0.5,-1.2 -1.5,-1 -2.4,-0.7 -0.1,0 -0.994037,0.211414 -0.994037,0.211414 C 30.340717,28.088586 28.314139,28.854344 22.2,29 17.1,29.1 13.9,28.5 12.4,28.2 L 11.1,28 c -0.5,0.1 -1.2,0.7 -1.4,1.4"
   id="path28" />
				<path
   class="st5"
   d="m 32.9,27.4 -0.8,0.2 c -1.3,0.4 -4,1.2 -9.9,1.3 -5.1,0.1 -8.288586,-0.511414 -9.811414,-0.74293 L 11.1,27.979898 C 10.650981,27.901465 9.8029992,28.589503 9.7,29.3 v 0 c 0,0.2 0,0.7 0.5,1 0.9,0.6 7.8,2.9 15.5,2.1 7.4,-0.7 9.1,-1.5 9.7,-2.6 0.1,-0.2 0.3,-0.6 0.2,-1.3 L 35.5,28.1 C 34.9,26.9 33.8,27.2 32.9,27.4 M 22.2,29 c 6,-0.1 8.7,-1 10,-1.3 L 33,27.5 c 0.9,-0.2 1.820102,-0.511414 2.320102,0.688586 L 35.5,28.6 c 0.2,0.6 0,1 -0.2,1.2 -0.5,1.1 -2.2,1.8 -9.6,2.5 C 18,33.1 11.1,30.8 10.3,30.2 9.9,30 9.8,29.7 9.8,29.4 c 0.677596,-1.600553 1.671501,-0.194974 3.067971,-0.286885 1.5,0.3 5.944119,0.817377 11.044119,0.617377"
   id="path29" />
				<path
   class="st5"
   d="m 11,22.1 c -0.159428,0.243409 -0.208793,0.541593 -0.2,0.8 0.1,0.4 0.2,1.216513 1.475535,1.624465 L 12.7,24.6 c 1.5,0.2 4.7,0.7 9.8,0.6 h 4.9 c 2.6,0 3.5,0 3.9,-0.2 0.440139,-0.180511 0.5,-0.5 0.5,-0.9 v -0.3 c 0,-1.2 -1.2,-1.4 -2.4,-1.4 H 27.7 L 21,22.3 c -2.5,-0.1 -5.2,-0.5 -7,-0.7 l -1.8,-0.2 c -0.324465,-0.0021 -0.9,0.3 -1.2,0.7"
   id="path30" />
				
			</g>
		</g>
	</g>
</g></g>
</svg>
